%TF.GenerationSoftware,KiCad,Pcbnew,(5.0.0)*%
%TF.CreationDate,2018-08-10T17:36:06+10:00*%
%TF.ProjectId,MotorDriver,4D6F746F724472697665722E6B696361,rev?*%
%TF.SameCoordinates,Original*%
%TF.FileFunction,Paste,Top*%
%TF.FilePolarity,Positive*%
%FSLAX46Y46*%
G04 Gerber Fmt 4.6, Leading zero omitted, Abs format (unit mm)*
G04 Created by KiCad (PCBNEW (5.0.0)) date 08/10/18 17:36:06*
%MOMM*%
%LPD*%
G01*
G04 APERTURE LIST*
%ADD10R,1.000000X1.250000*%
%ADD11R,1.250000X1.000000*%
%ADD12R,1.300000X0.700000*%
%ADD13R,2.500000X3.200000*%
%ADD14R,0.700000X1.300000*%
%ADD15R,0.900000X0.300000*%
%ADD16R,0.300000X0.900000*%
%ADD17R,1.143000X0.508000*%
%ADD18R,1.000000X3.200000*%
%ADD19R,3.200000X1.000000*%
%ADD20R,3.500000X1.600000*%
%ADD21R,0.400000X1.500000*%
%ADD22R,2.000000X2.000000*%
G04 APERTURE END LIST*
D10*
X213250000Y-115750000D03*
X211250000Y-115750000D03*
X206962500Y-119824500D03*
X208962500Y-119824500D03*
D11*
X199525000Y-87400000D03*
X199525000Y-89400000D03*
X219400000Y-94400000D03*
X219400000Y-96400000D03*
X217400000Y-96400000D03*
X217400000Y-94400000D03*
X216250000Y-110750000D03*
X216250000Y-112750000D03*
D10*
X198450000Y-103500000D03*
X196450000Y-103500000D03*
D11*
X218000000Y-112750000D03*
X218000000Y-110750000D03*
D10*
X210650000Y-83525000D03*
X208650000Y-83525000D03*
X206975000Y-117300000D03*
X208975000Y-117300000D03*
X208100000Y-100400000D03*
X210100000Y-100400000D03*
D11*
X215400000Y-96600000D03*
X215400000Y-98600000D03*
D12*
X217400000Y-91050000D03*
X217400000Y-92950000D03*
X216250000Y-109450000D03*
X216250000Y-107550000D03*
D11*
X199725000Y-70175000D03*
X199725000Y-72175000D03*
X218575000Y-76925000D03*
X218575000Y-78925000D03*
X220450000Y-76925000D03*
X220450000Y-78925000D03*
X216475000Y-78975000D03*
X216475000Y-80975000D03*
D10*
X208650000Y-67050000D03*
X210650000Y-67050000D03*
X224742500Y-67246500D03*
X226742500Y-67246500D03*
X199550000Y-48320000D03*
X197550000Y-48320000D03*
X168284400Y-81432400D03*
X166284400Y-81432400D03*
X183102000Y-99060000D03*
X181102000Y-99060000D03*
X147288000Y-104140000D03*
X145288000Y-104140000D03*
D11*
X140090000Y-70628000D03*
X140090000Y-72628000D03*
X162560000Y-86884000D03*
X162560000Y-88884000D03*
D10*
X151400000Y-116200000D03*
X149400000Y-116200000D03*
D13*
X156840000Y-67070000D03*
X156840000Y-62770000D03*
D10*
X151892000Y-81026000D03*
X149892000Y-81026000D03*
X144500000Y-108200000D03*
X142500000Y-108200000D03*
X145338201Y-100482001D03*
X147338201Y-100482001D03*
D11*
X159766000Y-88884000D03*
X159766000Y-86884000D03*
D10*
X183102000Y-101092000D03*
X181102000Y-101092000D03*
X147288000Y-102400000D03*
X145288000Y-102400000D03*
D11*
X163550000Y-121142000D03*
X163550000Y-119142000D03*
D10*
X174228000Y-88646000D03*
X172228000Y-88646000D03*
X181118000Y-111760000D03*
X183118000Y-111760000D03*
D11*
X160020000Y-119126000D03*
X160020000Y-121126000D03*
D10*
X183134000Y-109728000D03*
X181134000Y-109728000D03*
D11*
X165354000Y-119142000D03*
X165354000Y-121142000D03*
X179578000Y-94710000D03*
X179578000Y-92710000D03*
X181610000Y-92726000D03*
X181610000Y-94726000D03*
D10*
X183102000Y-97282000D03*
X181102000Y-97282000D03*
D11*
X197950000Y-51760000D03*
X197950000Y-53760000D03*
X219200000Y-58300000D03*
X219200000Y-56300000D03*
X219200000Y-61900000D03*
X219200000Y-59900000D03*
X216500000Y-59925000D03*
X216500000Y-61925000D03*
D10*
X213840000Y-48650000D03*
X215840000Y-48650000D03*
X215810000Y-50440000D03*
X213810000Y-50440000D03*
D12*
X216600000Y-76925000D03*
X216600000Y-75025000D03*
D14*
X185288000Y-92710000D03*
X183388000Y-92710000D03*
D12*
X151384000Y-89276000D03*
X151384000Y-87376000D03*
X149352000Y-86680000D03*
X149352000Y-88580000D03*
X138239500Y-90045500D03*
X138239500Y-91945500D03*
D14*
X144460000Y-85090000D03*
X142560000Y-85090000D03*
D12*
X216500000Y-58475000D03*
X216500000Y-56575000D03*
D15*
X172700400Y-112229600D03*
X172700400Y-111729600D03*
X172700400Y-111229600D03*
X172700400Y-110729600D03*
X172700400Y-110229600D03*
X172700400Y-109729600D03*
X172700400Y-109229600D03*
X172700400Y-108729600D03*
X172700400Y-108229600D03*
X172700400Y-107729600D03*
X172700400Y-107229600D03*
X172700400Y-106729600D03*
X172700400Y-106229600D03*
X172700400Y-105729600D03*
X172700400Y-105229600D03*
X172700400Y-104729600D03*
X172700400Y-104229600D03*
X172700400Y-103729600D03*
X172700400Y-103229600D03*
X172700400Y-102729600D03*
X172700400Y-102229600D03*
X172700400Y-101729600D03*
X172700400Y-101229600D03*
X172700400Y-100729600D03*
X172700400Y-100229600D03*
X172700400Y-99729600D03*
X172700400Y-99229600D03*
X172700400Y-98729600D03*
X172700400Y-98229600D03*
X172700400Y-97729600D03*
X172700400Y-97229600D03*
X172700400Y-96729600D03*
X172700400Y-96229600D03*
X172700400Y-95729600D03*
X172700400Y-95229600D03*
X172700400Y-94729600D03*
D16*
X170700400Y-92729600D03*
X170200400Y-92729600D03*
X169700400Y-92729600D03*
X169200400Y-92729600D03*
X168700400Y-92729600D03*
X168200400Y-92729600D03*
X167700400Y-92729600D03*
X167200400Y-92729600D03*
X166700400Y-92729600D03*
X166200400Y-92729600D03*
X165700400Y-92729600D03*
X165200400Y-92729600D03*
X164700400Y-92729600D03*
X164200400Y-92729600D03*
X163700400Y-92729600D03*
X163200400Y-92729600D03*
X162700400Y-92729600D03*
X162200400Y-92729600D03*
X161700400Y-92729600D03*
X161200400Y-92729600D03*
X160700400Y-92729600D03*
X160200400Y-92729600D03*
X159700400Y-92729600D03*
X159200400Y-92729600D03*
X158700400Y-92729600D03*
X158200400Y-92729600D03*
X157700400Y-92729600D03*
X157200400Y-92729600D03*
X156700400Y-92729600D03*
X156200400Y-92729600D03*
X155700400Y-92729600D03*
X155200400Y-92729600D03*
X154700400Y-92729600D03*
X154200400Y-92729600D03*
X153700400Y-92729600D03*
X153200400Y-92729600D03*
D15*
X151200400Y-94729600D03*
X151200400Y-95229600D03*
X151200400Y-95729600D03*
X151200400Y-96229600D03*
X151200400Y-96729600D03*
X151200400Y-97229600D03*
X151200400Y-97729600D03*
X151200400Y-98229600D03*
X151200400Y-98729600D03*
X151200400Y-99229600D03*
X151200400Y-99729600D03*
X151200400Y-100229600D03*
X151200400Y-100729600D03*
X151200400Y-101229600D03*
X151200400Y-101729600D03*
X151200400Y-102229600D03*
X151200400Y-102729600D03*
X151200400Y-103229600D03*
X151200400Y-103729600D03*
X151200400Y-104229600D03*
X151200400Y-104729600D03*
X151200400Y-105229600D03*
X151200400Y-105729600D03*
X151200400Y-106229600D03*
X151200400Y-106729600D03*
X151200400Y-107229600D03*
X151200400Y-107729600D03*
X151200400Y-108229600D03*
X151200400Y-108729600D03*
X151200400Y-109229600D03*
X151200400Y-109729600D03*
X151200400Y-110229600D03*
X151200400Y-110729600D03*
X151200400Y-111229600D03*
X151200400Y-111729600D03*
X151200400Y-112229600D03*
D16*
X153200400Y-114229600D03*
X153700400Y-114229600D03*
X154200400Y-114229600D03*
X154700400Y-114229600D03*
X155200400Y-114229600D03*
X155700400Y-114229600D03*
X156200400Y-114229600D03*
X156700400Y-114229600D03*
X157200400Y-114229600D03*
X157700400Y-114229600D03*
X158200400Y-114229600D03*
X158700400Y-114229600D03*
X159200400Y-114229600D03*
X159700400Y-114229600D03*
X160200400Y-114229600D03*
X160700400Y-114229600D03*
X161200400Y-114229600D03*
X161700400Y-114229600D03*
X162200400Y-114229600D03*
X162700400Y-114229600D03*
X163200400Y-114229600D03*
X163700400Y-114229600D03*
X164200400Y-114229600D03*
X164700400Y-114229600D03*
X165200400Y-114229600D03*
X165700400Y-114229600D03*
X166200400Y-114229600D03*
X166700400Y-114229600D03*
X167200400Y-114229600D03*
X167700400Y-114229600D03*
X168200400Y-114229600D03*
X168700400Y-114229600D03*
X169200400Y-114229600D03*
X169700400Y-114229600D03*
X170200400Y-114229600D03*
X170700400Y-114229600D03*
D17*
X140538200Y-87503000D03*
X140538200Y-88773000D03*
X140538200Y-90043000D03*
X140538200Y-91313000D03*
X146888200Y-91313000D03*
X146888200Y-90043000D03*
X146888200Y-88773000D03*
X146888200Y-87503000D03*
D18*
X207850000Y-103500000D03*
X201650000Y-103500000D03*
X201900000Y-113750000D03*
X208100000Y-113750000D03*
X208100000Y-87250000D03*
X201900000Y-87250000D03*
X207700000Y-97450000D03*
X201500000Y-97450000D03*
X208350000Y-70200000D03*
X202150000Y-70200000D03*
X201900000Y-80350000D03*
X208100000Y-80350000D03*
D19*
X218884500Y-41887000D03*
X218884500Y-35687000D03*
X218925000Y-43375000D03*
X218925000Y-49575000D03*
D18*
X207775000Y-51750000D03*
X201575000Y-51750000D03*
X201450000Y-61850000D03*
X207650000Y-61850000D03*
D20*
X220251000Y-117792500D03*
X214851000Y-117792500D03*
X214851000Y-101917500D03*
X220251000Y-101917500D03*
X220187500Y-67246500D03*
X214787500Y-67246500D03*
X215742500Y-33782000D03*
X210342500Y-33782000D03*
X219616000Y-84899500D03*
X214216000Y-84899500D03*
D21*
X145908000Y-64967500D03*
X147208000Y-64967500D03*
X147208000Y-67627500D03*
X146558000Y-67627500D03*
X145908000Y-67627500D03*
D22*
X169733600Y-88714000D03*
X164733600Y-88714000D03*
X164733600Y-84514000D03*
X169733600Y-84514000D03*
M02*
