%TF.GenerationSoftware,KiCad,Pcbnew,(5.0.0)*%
%TF.CreationDate,2018-08-10T17:36:06+10:00*%
%TF.ProjectId,MotorDriver,4D6F746F724472697665722E6B696361,rev?*%
%TF.SameCoordinates,Original*%
%TF.FileFunction,Soldermask,Bot*%
%TF.FilePolarity,Negative*%
%FSLAX46Y46*%
G04 Gerber Fmt 4.6, Leading zero omitted, Abs format (unit mm)*
G04 Created by KiCad (PCBNEW (5.0.0)) date 08/10/18 17:36:06*
%MOMM*%
%LPD*%
G01*
G04 APERTURE LIST*
%ADD10R,2.150000X2.150000*%
%ADD11C,2.150000*%
%ADD12R,1.600000X0.800000*%
%ADD13R,3.500000X5.580000*%
%ADD14R,5.400000X5.400000*%
%ADD15R,0.650000X1.850000*%
%ADD16R,1.850000X0.650000*%
%ADD17O,2.398980X2.398980*%
%ADD18R,2.398980X2.398980*%
%ADD19R,1.650000X1.400000*%
%ADD20R,4.000000X2.200000*%
%ADD21O,4.000000X2.200000*%
%ADD22C,2.800000*%
%ADD23R,1.400000X1.650000*%
%ADD24O,2.100000X2.100000*%
%ADD25R,2.100000X2.100000*%
%ADD26O,2.200000X4.000000*%
%ADD27R,2.200000X4.000000*%
%ADD28R,1.100000X1.700000*%
%ADD29C,7.400000*%
G04 APERTURE END LIST*
D10*
X172466000Y-32860000D03*
D11*
X174966000Y-32860000D03*
X177466000Y-32860000D03*
X188370000Y-32950000D03*
X185870000Y-32950000D03*
D10*
X183370000Y-32950000D03*
D12*
X214940000Y-38185000D03*
X214940000Y-38835000D03*
X214940000Y-39485000D03*
X214940000Y-40135000D03*
X214940000Y-40785000D03*
X214940000Y-41435000D03*
X214940000Y-42085000D03*
X214940000Y-42735000D03*
X214940000Y-43385000D03*
X214940000Y-44035000D03*
X214940000Y-44685000D03*
X214940000Y-45335000D03*
X214940000Y-45985000D03*
X214940000Y-46635000D03*
X209140000Y-46635000D03*
X209140000Y-45985000D03*
X209140000Y-45335000D03*
X209140000Y-44685000D03*
X209140000Y-44035000D03*
X209140000Y-43385000D03*
X209140000Y-42735000D03*
X209140000Y-42085000D03*
X209140000Y-41435000D03*
X209140000Y-40785000D03*
X209140000Y-40135000D03*
X209140000Y-39485000D03*
X209140000Y-38835000D03*
X209140000Y-38185000D03*
D13*
X212040000Y-42410000D03*
D14*
X208635600Y-108508800D03*
D15*
X205885600Y-112683800D03*
X206385600Y-112683800D03*
X206885600Y-112683800D03*
X207385600Y-112683800D03*
X207885600Y-112683800D03*
X208385600Y-112683800D03*
X208885600Y-112683800D03*
X209385600Y-112683800D03*
X209885600Y-112683800D03*
X210385600Y-112683800D03*
X210885600Y-112683800D03*
X211385600Y-112683800D03*
D16*
X212810600Y-111258800D03*
X212810600Y-110758800D03*
X212810600Y-110258800D03*
X212810600Y-109758800D03*
X212810600Y-109258800D03*
X212810600Y-108758800D03*
X212810600Y-108258800D03*
X212810600Y-107758800D03*
X212810600Y-107258800D03*
X212810600Y-106758800D03*
X212810600Y-106258800D03*
X212810600Y-105758800D03*
D15*
X211385600Y-104333800D03*
X210885600Y-104333800D03*
X210385600Y-104333800D03*
X209885600Y-104333800D03*
X209385600Y-104333800D03*
X208885600Y-104333800D03*
X208385600Y-104333800D03*
X207885600Y-104333800D03*
X207385600Y-104333800D03*
X206885600Y-104333800D03*
X206385600Y-104333800D03*
X205885600Y-104333800D03*
D16*
X204460600Y-105758800D03*
X204460600Y-106258800D03*
X204460600Y-106758800D03*
X204460600Y-107258800D03*
X204460600Y-107758800D03*
X204460600Y-108258800D03*
X204460600Y-108758800D03*
X204460600Y-109258800D03*
X204460600Y-109758800D03*
X204460600Y-110258800D03*
X204460600Y-110758800D03*
X204460600Y-111258800D03*
D17*
X224891600Y-107899200D03*
X224891600Y-110439200D03*
D18*
X224891600Y-112979200D03*
D17*
X224891600Y-105359200D03*
D19*
X216250000Y-110750000D03*
X216250000Y-112750000D03*
D20*
X132588000Y-64516000D03*
D21*
X132588000Y-69596000D03*
D22*
X132588000Y-60016000D03*
X132588000Y-74096000D03*
D14*
X208750000Y-92250000D03*
D15*
X206000000Y-96425000D03*
X206500000Y-96425000D03*
X207000000Y-96425000D03*
X207500000Y-96425000D03*
X208000000Y-96425000D03*
X208500000Y-96425000D03*
X209000000Y-96425000D03*
X209500000Y-96425000D03*
X210000000Y-96425000D03*
X210500000Y-96425000D03*
X211000000Y-96425000D03*
X211500000Y-96425000D03*
D16*
X212925000Y-95000000D03*
X212925000Y-94500000D03*
X212925000Y-94000000D03*
X212925000Y-93500000D03*
X212925000Y-93000000D03*
X212925000Y-92500000D03*
X212925000Y-92000000D03*
X212925000Y-91500000D03*
X212925000Y-91000000D03*
X212925000Y-90500000D03*
X212925000Y-90000000D03*
X212925000Y-89500000D03*
D15*
X211500000Y-88075000D03*
X211000000Y-88075000D03*
X210500000Y-88075000D03*
X210000000Y-88075000D03*
X209500000Y-88075000D03*
X209000000Y-88075000D03*
X208500000Y-88075000D03*
X208000000Y-88075000D03*
X207500000Y-88075000D03*
X207000000Y-88075000D03*
X206500000Y-88075000D03*
X206000000Y-88075000D03*
D16*
X204575000Y-89500000D03*
X204575000Y-90000000D03*
X204575000Y-90500000D03*
X204575000Y-91000000D03*
X204575000Y-91500000D03*
X204575000Y-92000000D03*
X204575000Y-92500000D03*
X204575000Y-93000000D03*
X204575000Y-93500000D03*
X204575000Y-94000000D03*
X204575000Y-94500000D03*
X204575000Y-95000000D03*
D17*
X224750000Y-88130000D03*
D18*
X224750000Y-95750000D03*
D17*
X224750000Y-93210000D03*
X224750000Y-90670000D03*
D23*
X219884500Y-101854000D03*
X217884500Y-101854000D03*
D19*
X216471500Y-78565500D03*
X216471500Y-80565500D03*
D23*
X214590000Y-36180000D03*
X212590000Y-36180000D03*
X217281000Y-32740000D03*
X215281000Y-32740000D03*
X213750000Y-31660000D03*
X211750000Y-31660000D03*
X215820500Y-64008000D03*
X213820500Y-64008000D03*
D16*
X204925000Y-78000000D03*
X204925000Y-77500000D03*
X204925000Y-77000000D03*
X204925000Y-76500000D03*
X204925000Y-76000000D03*
X204925000Y-75500000D03*
X204925000Y-75000000D03*
X204925000Y-74500000D03*
X204925000Y-74000000D03*
X204925000Y-73500000D03*
X204925000Y-73000000D03*
X204925000Y-72500000D03*
D15*
X206350000Y-71075000D03*
X206850000Y-71075000D03*
X207350000Y-71075000D03*
X207850000Y-71075000D03*
X208350000Y-71075000D03*
X208850000Y-71075000D03*
X209350000Y-71075000D03*
X209850000Y-71075000D03*
X210350000Y-71075000D03*
X210850000Y-71075000D03*
X211350000Y-71075000D03*
X211850000Y-71075000D03*
D16*
X213275000Y-72500000D03*
X213275000Y-73000000D03*
X213275000Y-73500000D03*
X213275000Y-74000000D03*
X213275000Y-74500000D03*
X213275000Y-75000000D03*
X213275000Y-75500000D03*
X213275000Y-76000000D03*
X213275000Y-76500000D03*
X213275000Y-77000000D03*
X213275000Y-77500000D03*
X213275000Y-78000000D03*
D15*
X211850000Y-79425000D03*
X211350000Y-79425000D03*
X210850000Y-79425000D03*
X210350000Y-79425000D03*
X209850000Y-79425000D03*
X209350000Y-79425000D03*
X208850000Y-79425000D03*
X208350000Y-79425000D03*
X207850000Y-79425000D03*
X207350000Y-79425000D03*
X206850000Y-79425000D03*
X206350000Y-79425000D03*
D14*
X209100000Y-75250000D03*
D16*
X204700000Y-59575000D03*
X204700000Y-59075000D03*
X204700000Y-58575000D03*
X204700000Y-58075000D03*
X204700000Y-57575000D03*
X204700000Y-57075000D03*
X204700000Y-56575000D03*
X204700000Y-56075000D03*
X204700000Y-55575000D03*
X204700000Y-55075000D03*
X204700000Y-54575000D03*
X204700000Y-54075000D03*
D15*
X206125000Y-52650000D03*
X206625000Y-52650000D03*
X207125000Y-52650000D03*
X207625000Y-52650000D03*
X208125000Y-52650000D03*
X208625000Y-52650000D03*
X209125000Y-52650000D03*
X209625000Y-52650000D03*
X210125000Y-52650000D03*
X210625000Y-52650000D03*
X211125000Y-52650000D03*
X211625000Y-52650000D03*
D16*
X213050000Y-54075000D03*
X213050000Y-54575000D03*
X213050000Y-55075000D03*
X213050000Y-55575000D03*
X213050000Y-56075000D03*
X213050000Y-56575000D03*
X213050000Y-57075000D03*
X213050000Y-57575000D03*
X213050000Y-58075000D03*
X213050000Y-58575000D03*
X213050000Y-59075000D03*
X213050000Y-59575000D03*
D15*
X211625000Y-61000000D03*
X211125000Y-61000000D03*
X210625000Y-61000000D03*
X210125000Y-61000000D03*
X209625000Y-61000000D03*
X209125000Y-61000000D03*
X208625000Y-61000000D03*
X208125000Y-61000000D03*
X207625000Y-61000000D03*
X207125000Y-61000000D03*
X206625000Y-61000000D03*
X206125000Y-61000000D03*
D14*
X208875000Y-56825000D03*
D17*
X224891600Y-72440800D03*
D18*
X224891600Y-80060800D03*
D17*
X224891600Y-77520800D03*
X224891600Y-74980800D03*
D24*
X204280000Y-31770000D03*
X206820000Y-31770000D03*
X204280000Y-34310000D03*
X206820000Y-34310000D03*
X204280000Y-36850000D03*
D25*
X206820000Y-36850000D03*
D17*
X224536000Y-43434000D03*
X224536000Y-45974000D03*
D18*
X224536000Y-48514000D03*
D17*
X224536000Y-40894000D03*
D24*
X130810000Y-102870000D03*
X130810000Y-100330000D03*
X130810000Y-97790000D03*
X130810000Y-95250000D03*
X130810000Y-92710000D03*
X130810000Y-90170000D03*
X130810000Y-87630000D03*
D25*
X130810000Y-85090000D03*
D17*
X224900000Y-56645000D03*
X224900000Y-59185000D03*
D18*
X224900000Y-61725000D03*
D17*
X224900000Y-54105000D03*
D22*
X214980000Y-126000000D03*
X200900000Y-126000000D03*
D26*
X210480000Y-126000000D03*
D27*
X205400000Y-126000000D03*
D10*
X194259200Y-33020000D03*
D11*
X196759200Y-33020000D03*
X199259200Y-33020000D03*
X166340800Y-32816800D03*
X163840800Y-32816800D03*
D10*
X161340800Y-32816800D03*
X150622000Y-32816800D03*
D11*
X153122000Y-32816800D03*
X155622000Y-32816800D03*
X144994000Y-32766000D03*
X142494000Y-32766000D03*
D10*
X139994000Y-32766000D03*
D28*
X211940000Y-34080000D03*
X213840000Y-34080000D03*
D10*
X159750000Y-126450000D03*
D11*
X157250000Y-126450000D03*
X154750000Y-126450000D03*
X152250000Y-126450000D03*
D10*
X173250000Y-126450000D03*
D11*
X170750000Y-126450000D03*
X168250000Y-126450000D03*
X165750000Y-126450000D03*
X179250000Y-126450000D03*
X181750000Y-126450000D03*
X184250000Y-126450000D03*
D10*
X186750000Y-126450000D03*
D11*
X138750000Y-126450000D03*
X141250000Y-126450000D03*
X143750000Y-126450000D03*
D10*
X146250000Y-126450000D03*
D11*
X133096000Y-54156000D03*
X133096000Y-51656000D03*
X133096000Y-49156000D03*
X133096000Y-46656000D03*
X133096000Y-44156000D03*
D10*
X133096000Y-41656000D03*
D24*
X130810000Y-105918000D03*
X133350000Y-105918000D03*
X130810000Y-108458000D03*
X133350000Y-108458000D03*
X130810000Y-110998000D03*
X133350000Y-110998000D03*
X130810000Y-113538000D03*
X133350000Y-113538000D03*
X130810000Y-116078000D03*
D25*
X133350000Y-116078000D03*
D29*
X223520000Y-124460000D03*
X224282000Y-33782000D03*
X132334000Y-125476000D03*
X133350000Y-34544000D03*
M02*
