%TF.GenerationSoftware,KiCad,Pcbnew,(5.0.0)*%
%TF.CreationDate,2018-08-10T17:36:06+10:00*%
%TF.ProjectId,MotorDriver,4D6F746F724472697665722E6B696361,rev?*%
%TF.SameCoordinates,Original*%
%TF.FileFunction,Paste,Bot*%
%TF.FilePolarity,Positive*%
%FSLAX46Y46*%
G04 Gerber Fmt 4.6, Leading zero omitted, Abs format (unit mm)*
G04 Created by KiCad (PCBNEW (5.0.0)) date 08/10/18 17:36:06*
%MOMM*%
%LPD*%
G01*
G04 APERTURE LIST*
%ADD10C,0.150000*%
%ADD11R,1.200000X0.400000*%
%ADD12R,3.100000X5.180000*%
%ADD13R,5.000000X5.000000*%
%ADD14R,0.250000X1.450000*%
%ADD15R,1.450000X0.250000*%
%ADD16R,1.250000X1.000000*%
%ADD17R,1.000000X1.250000*%
%ADD18R,0.700000X1.300000*%
G04 APERTURE END LIST*
D10*
G36*
X211035600Y-108108800D02*
X211035600Y-106108800D01*
X209035600Y-106108800D01*
X209035600Y-108108800D01*
X211035600Y-108108800D01*
G37*
X211035600Y-108108800D02*
X211035600Y-106108800D01*
X209035600Y-106108800D01*
X209035600Y-108108800D01*
X211035600Y-108108800D01*
G36*
X208235600Y-108108800D02*
X208235600Y-106108800D01*
X206235600Y-106108800D01*
X206235600Y-108108800D01*
X208235600Y-108108800D01*
G37*
X208235600Y-108108800D02*
X208235600Y-106108800D01*
X206235600Y-106108800D01*
X206235600Y-108108800D01*
X208235600Y-108108800D01*
G36*
X208235600Y-110908800D02*
X208235600Y-108908800D01*
X206235600Y-108908800D01*
X206235600Y-110908800D01*
X208235600Y-110908800D01*
G37*
X208235600Y-110908800D02*
X208235600Y-108908800D01*
X206235600Y-108908800D01*
X206235600Y-110908800D01*
X208235600Y-110908800D01*
G36*
X211035600Y-110908800D02*
X211035600Y-108908800D01*
X209035600Y-108908800D01*
X209035600Y-110908800D01*
X211035600Y-110908800D01*
G37*
X211035600Y-110908800D02*
X211035600Y-108908800D01*
X209035600Y-108908800D01*
X209035600Y-110908800D01*
X211035600Y-110908800D01*
G36*
X211150000Y-91850000D02*
X211150000Y-89850000D01*
X209150000Y-89850000D01*
X209150000Y-91850000D01*
X211150000Y-91850000D01*
G37*
X211150000Y-91850000D02*
X211150000Y-89850000D01*
X209150000Y-89850000D01*
X209150000Y-91850000D01*
X211150000Y-91850000D01*
G36*
X208350000Y-91850000D02*
X208350000Y-89850000D01*
X206350000Y-89850000D01*
X206350000Y-91850000D01*
X208350000Y-91850000D01*
G37*
X208350000Y-91850000D02*
X208350000Y-89850000D01*
X206350000Y-89850000D01*
X206350000Y-91850000D01*
X208350000Y-91850000D01*
G36*
X208350000Y-94650000D02*
X208350000Y-92650000D01*
X206350000Y-92650000D01*
X206350000Y-94650000D01*
X208350000Y-94650000D01*
G37*
X208350000Y-94650000D02*
X208350000Y-92650000D01*
X206350000Y-92650000D01*
X206350000Y-94650000D01*
X208350000Y-94650000D01*
G36*
X211150000Y-94650000D02*
X211150000Y-92650000D01*
X209150000Y-92650000D01*
X209150000Y-94650000D01*
X211150000Y-94650000D01*
G37*
X211150000Y-94650000D02*
X211150000Y-92650000D01*
X209150000Y-92650000D01*
X209150000Y-94650000D01*
X211150000Y-94650000D01*
G36*
X211500000Y-77650000D02*
X211500000Y-75650000D01*
X209500000Y-75650000D01*
X209500000Y-77650000D01*
X211500000Y-77650000D01*
G37*
X211500000Y-77650000D02*
X211500000Y-75650000D01*
X209500000Y-75650000D01*
X209500000Y-77650000D01*
X211500000Y-77650000D01*
G36*
X208700000Y-77650000D02*
X208700000Y-75650000D01*
X206700000Y-75650000D01*
X206700000Y-77650000D01*
X208700000Y-77650000D01*
G37*
X208700000Y-77650000D02*
X208700000Y-75650000D01*
X206700000Y-75650000D01*
X206700000Y-77650000D01*
X208700000Y-77650000D01*
G36*
X208700000Y-74850000D02*
X208700000Y-72850000D01*
X206700000Y-72850000D01*
X206700000Y-74850000D01*
X208700000Y-74850000D01*
G37*
X208700000Y-74850000D02*
X208700000Y-72850000D01*
X206700000Y-72850000D01*
X206700000Y-74850000D01*
X208700000Y-74850000D01*
G36*
X211500000Y-74850000D02*
X211500000Y-72850000D01*
X209500000Y-72850000D01*
X209500000Y-74850000D01*
X211500000Y-74850000D01*
G37*
X211500000Y-74850000D02*
X211500000Y-72850000D01*
X209500000Y-72850000D01*
X209500000Y-74850000D01*
X211500000Y-74850000D01*
G36*
X211275000Y-59225000D02*
X211275000Y-57225000D01*
X209275000Y-57225000D01*
X209275000Y-59225000D01*
X211275000Y-59225000D01*
G37*
X211275000Y-59225000D02*
X211275000Y-57225000D01*
X209275000Y-57225000D01*
X209275000Y-59225000D01*
X211275000Y-59225000D01*
G36*
X208475000Y-59225000D02*
X208475000Y-57225000D01*
X206475000Y-57225000D01*
X206475000Y-59225000D01*
X208475000Y-59225000D01*
G37*
X208475000Y-59225000D02*
X208475000Y-57225000D01*
X206475000Y-57225000D01*
X206475000Y-59225000D01*
X208475000Y-59225000D01*
G36*
X208475000Y-56425000D02*
X208475000Y-54425000D01*
X206475000Y-54425000D01*
X206475000Y-56425000D01*
X208475000Y-56425000D01*
G37*
X208475000Y-56425000D02*
X208475000Y-54425000D01*
X206475000Y-54425000D01*
X206475000Y-56425000D01*
X208475000Y-56425000D01*
G36*
X211275000Y-56425000D02*
X211275000Y-54425000D01*
X209275000Y-54425000D01*
X209275000Y-56425000D01*
X211275000Y-56425000D01*
G37*
X211275000Y-56425000D02*
X211275000Y-54425000D01*
X209275000Y-54425000D01*
X209275000Y-56425000D01*
X211275000Y-56425000D01*
D11*
X214940000Y-38185000D03*
X214940000Y-38835000D03*
X214940000Y-39485000D03*
X214940000Y-40135000D03*
X214940000Y-40785000D03*
X214940000Y-41435000D03*
X214940000Y-42085000D03*
X214940000Y-42735000D03*
X214940000Y-43385000D03*
X214940000Y-44035000D03*
X214940000Y-44685000D03*
X214940000Y-45335000D03*
X214940000Y-45985000D03*
X214940000Y-46635000D03*
X209140000Y-46635000D03*
X209140000Y-45985000D03*
X209140000Y-45335000D03*
X209140000Y-44685000D03*
X209140000Y-44035000D03*
X209140000Y-43385000D03*
X209140000Y-42735000D03*
X209140000Y-42085000D03*
X209140000Y-41435000D03*
X209140000Y-40785000D03*
X209140000Y-40135000D03*
X209140000Y-39485000D03*
X209140000Y-38835000D03*
X209140000Y-38185000D03*
D12*
X212040000Y-42410000D03*
D13*
X208635600Y-108508800D03*
D14*
X205885600Y-112683800D03*
X206385600Y-112683800D03*
X206885600Y-112683800D03*
X207385600Y-112683800D03*
X207885600Y-112683800D03*
X208385600Y-112683800D03*
X208885600Y-112683800D03*
X209385600Y-112683800D03*
X209885600Y-112683800D03*
X210385600Y-112683800D03*
X210885600Y-112683800D03*
X211385600Y-112683800D03*
D15*
X212810600Y-111258800D03*
X212810600Y-110758800D03*
X212810600Y-110258800D03*
X212810600Y-109758800D03*
X212810600Y-109258800D03*
X212810600Y-108758800D03*
X212810600Y-108258800D03*
X212810600Y-107758800D03*
X212810600Y-107258800D03*
X212810600Y-106758800D03*
X212810600Y-106258800D03*
X212810600Y-105758800D03*
D14*
X211385600Y-104333800D03*
X210885600Y-104333800D03*
X210385600Y-104333800D03*
X209885600Y-104333800D03*
X209385600Y-104333800D03*
X208885600Y-104333800D03*
X208385600Y-104333800D03*
X207885600Y-104333800D03*
X207385600Y-104333800D03*
X206885600Y-104333800D03*
X206385600Y-104333800D03*
X205885600Y-104333800D03*
D15*
X204460600Y-105758800D03*
X204460600Y-106258800D03*
X204460600Y-106758800D03*
X204460600Y-107258800D03*
X204460600Y-107758800D03*
X204460600Y-108258800D03*
X204460600Y-108758800D03*
X204460600Y-109258800D03*
X204460600Y-109758800D03*
X204460600Y-110258800D03*
X204460600Y-110758800D03*
X204460600Y-111258800D03*
D16*
X216250000Y-110750000D03*
X216250000Y-112750000D03*
D13*
X208750000Y-92250000D03*
D14*
X206000000Y-96425000D03*
X206500000Y-96425000D03*
X207000000Y-96425000D03*
X207500000Y-96425000D03*
X208000000Y-96425000D03*
X208500000Y-96425000D03*
X209000000Y-96425000D03*
X209500000Y-96425000D03*
X210000000Y-96425000D03*
X210500000Y-96425000D03*
X211000000Y-96425000D03*
X211500000Y-96425000D03*
D15*
X212925000Y-95000000D03*
X212925000Y-94500000D03*
X212925000Y-94000000D03*
X212925000Y-93500000D03*
X212925000Y-93000000D03*
X212925000Y-92500000D03*
X212925000Y-92000000D03*
X212925000Y-91500000D03*
X212925000Y-91000000D03*
X212925000Y-90500000D03*
X212925000Y-90000000D03*
X212925000Y-89500000D03*
D14*
X211500000Y-88075000D03*
X211000000Y-88075000D03*
X210500000Y-88075000D03*
X210000000Y-88075000D03*
X209500000Y-88075000D03*
X209000000Y-88075000D03*
X208500000Y-88075000D03*
X208000000Y-88075000D03*
X207500000Y-88075000D03*
X207000000Y-88075000D03*
X206500000Y-88075000D03*
X206000000Y-88075000D03*
D15*
X204575000Y-89500000D03*
X204575000Y-90000000D03*
X204575000Y-90500000D03*
X204575000Y-91000000D03*
X204575000Y-91500000D03*
X204575000Y-92000000D03*
X204575000Y-92500000D03*
X204575000Y-93000000D03*
X204575000Y-93500000D03*
X204575000Y-94000000D03*
X204575000Y-94500000D03*
X204575000Y-95000000D03*
D17*
X219884500Y-101854000D03*
X217884500Y-101854000D03*
D16*
X216471500Y-78565500D03*
X216471500Y-80565500D03*
D17*
X214590000Y-36180000D03*
X212590000Y-36180000D03*
X217281000Y-32740000D03*
X215281000Y-32740000D03*
X213750000Y-31660000D03*
X211750000Y-31660000D03*
X215820500Y-64008000D03*
X213820500Y-64008000D03*
D15*
X204925000Y-78000000D03*
X204925000Y-77500000D03*
X204925000Y-77000000D03*
X204925000Y-76500000D03*
X204925000Y-76000000D03*
X204925000Y-75500000D03*
X204925000Y-75000000D03*
X204925000Y-74500000D03*
X204925000Y-74000000D03*
X204925000Y-73500000D03*
X204925000Y-73000000D03*
X204925000Y-72500000D03*
D14*
X206350000Y-71075000D03*
X206850000Y-71075000D03*
X207350000Y-71075000D03*
X207850000Y-71075000D03*
X208350000Y-71075000D03*
X208850000Y-71075000D03*
X209350000Y-71075000D03*
X209850000Y-71075000D03*
X210350000Y-71075000D03*
X210850000Y-71075000D03*
X211350000Y-71075000D03*
X211850000Y-71075000D03*
D15*
X213275000Y-72500000D03*
X213275000Y-73000000D03*
X213275000Y-73500000D03*
X213275000Y-74000000D03*
X213275000Y-74500000D03*
X213275000Y-75000000D03*
X213275000Y-75500000D03*
X213275000Y-76000000D03*
X213275000Y-76500000D03*
X213275000Y-77000000D03*
X213275000Y-77500000D03*
X213275000Y-78000000D03*
D14*
X211850000Y-79425000D03*
X211350000Y-79425000D03*
X210850000Y-79425000D03*
X210350000Y-79425000D03*
X209850000Y-79425000D03*
X209350000Y-79425000D03*
X208850000Y-79425000D03*
X208350000Y-79425000D03*
X207850000Y-79425000D03*
X207350000Y-79425000D03*
X206850000Y-79425000D03*
X206350000Y-79425000D03*
D13*
X209100000Y-75250000D03*
D15*
X204700000Y-59575000D03*
X204700000Y-59075000D03*
X204700000Y-58575000D03*
X204700000Y-58075000D03*
X204700000Y-57575000D03*
X204700000Y-57075000D03*
X204700000Y-56575000D03*
X204700000Y-56075000D03*
X204700000Y-55575000D03*
X204700000Y-55075000D03*
X204700000Y-54575000D03*
X204700000Y-54075000D03*
D14*
X206125000Y-52650000D03*
X206625000Y-52650000D03*
X207125000Y-52650000D03*
X207625000Y-52650000D03*
X208125000Y-52650000D03*
X208625000Y-52650000D03*
X209125000Y-52650000D03*
X209625000Y-52650000D03*
X210125000Y-52650000D03*
X210625000Y-52650000D03*
X211125000Y-52650000D03*
X211625000Y-52650000D03*
D15*
X213050000Y-54075000D03*
X213050000Y-54575000D03*
X213050000Y-55075000D03*
X213050000Y-55575000D03*
X213050000Y-56075000D03*
X213050000Y-56575000D03*
X213050000Y-57075000D03*
X213050000Y-57575000D03*
X213050000Y-58075000D03*
X213050000Y-58575000D03*
X213050000Y-59075000D03*
X213050000Y-59575000D03*
D14*
X211625000Y-61000000D03*
X211125000Y-61000000D03*
X210625000Y-61000000D03*
X210125000Y-61000000D03*
X209625000Y-61000000D03*
X209125000Y-61000000D03*
X208625000Y-61000000D03*
X208125000Y-61000000D03*
X207625000Y-61000000D03*
X207125000Y-61000000D03*
X206625000Y-61000000D03*
X206125000Y-61000000D03*
D13*
X208875000Y-56825000D03*
D18*
X211940000Y-34080000D03*
X213840000Y-34080000D03*
M02*
