M48
INCH,TZ
T1C0.0157
T2C0.0394
T3C0.0432
T4C0.0472
T5C0.1378
%
G90
G05
T1
X52900Y-40200
X53000Y-36600
X53300Y-40900
X53400Y-40400
X54800Y-40200
X54900Y-36700
X55000Y-42500
X55500Y-36700
X55600Y-43300
X55800Y-37277
X56000Y-34900
X56200Y-43200
X56300Y-37300
X56475Y-27650
X56500Y-39600
X56500Y-40100
X56500Y-40600
X56500Y-41200
X56648Y-27100
X56900Y-36153
X56900Y-37300
X56900Y-37300
X56900Y-37300
X56900Y-43300
X57200Y-35500
X57400Y-45600
X57500Y-37300
X57800Y-32100
X57830Y-33630
X58100Y-37300
X58200Y-28400
X58600Y-38900
X59000Y-33700
X59700Y-36300
X60200Y-39200
X60200Y-39800
X60500Y-40500
X60600Y-42600
X60700Y-37100
X60777Y-41000
X60800Y-44300
X61400Y-37800
X61400Y-38400
X61500Y-37200
X61700Y-48100
X62100Y-37200
X62100Y-37800
X62100Y-38300
X62800Y-38300
X62900Y-33200
X63200Y-37200
X63200Y-44200
X63200Y-48821
X63661Y-46900
X63800Y-47700
X64000Y-32700
X64000Y-33200
X64100Y-32200
X64600Y-31700
X64700Y-37900
X65100Y-44300
X65400Y-37200
X66300Y-39300
X66700Y-38300
X67200Y-43100
X67300Y-38900
X69079Y-40376
X69461Y-28610
X69800Y-27300
X70000Y-28700
X70500Y-26100
X70500Y-28100
X71516Y-34831
X71717Y-41665
X71772Y-35217
X72319Y-35524
X72618Y-42384
X72783Y-43980
X72800Y-38300
X72800Y-38800
X72800Y-39300
X72800Y-39800
X72811Y-43173
X73200Y-37400
X73200Y-37900
X73200Y-38500
X73200Y-39000
X73366Y-43996
X73691Y-39685
X73740Y-40232
X73961Y-36051
X74331Y-42827
X74425Y-44354
X74800Y-27525
X74800Y-28225
X74850Y-26450
X74850Y-30575
X74875Y-25375
X74875Y-32025
X74875Y-34100
X74882Y-45220
X74900Y-33150
X74902Y-29496
X75075Y-43602
X75205Y-42394
X75217Y-44945
X75504Y-44559
X75975Y-22000
X75975Y-22475
X75996Y-42504
X76000Y-34275
X76075Y-30050
X76100Y-29500
X76125Y-24075
X76125Y-24550
X76125Y-27825
X76125Y-28425
X76125Y-30625
X76125Y-31475
X76126Y-39169
X76352Y-38736
X76400Y-22475
X76525Y-22000
X76642Y-38299
X76800Y-44200
X76800Y-44600
X76800Y-45000
X76800Y-45400
X76925Y-17325
X76925Y-19375
X77125Y-16875
X77300Y-44200
X77300Y-44600
X77300Y-45000
X77300Y-45400
X77476Y-36543
X77740Y-22469
X77787Y-41854
X77795Y-38594
X77800Y-44200
X77800Y-44600
X77800Y-45000
X77800Y-45400
X77875Y-15650
X77882Y-30700
X77900Y-16225
X77909Y-29728
X77937Y-35492
X77953Y-42494
X78000Y-47200
X78012Y-36480
X78088Y-22606
X78100Y-41400
X78217Y-28984
X78272Y-29917
X78300Y-44200
X78300Y-44600
X78300Y-45000
X78300Y-45400
X78355Y-42228
X78400Y-38700
X78400Y-39200
X78500Y-33300
X78500Y-33800
X78600Y-41400
X78600Y-47800
X78628Y-37287
X78638Y-36902
X78724Y-18224
X78800Y-22795
X78823Y-21583
X78937Y-16303
X79000Y-48200
X79256Y-35406
X79531Y-28827
X79756Y-35429
X79783Y-16295
X79858Y-30384
X79900Y-33200
X79900Y-39600
X80205Y-19047
X80400Y-39600
X80500Y-33300
X80579Y-16614
X80719Y-32953
X80900Y-39600
X81152Y-32953
X81390Y-41930
X81390Y-42430
X81390Y-43030
X81390Y-43530
X81429Y-35552
X81429Y-36052
X81429Y-36652
X81429Y-37152
X81528Y-21566
X81528Y-22066
X81528Y-22666
X81528Y-23166
X81528Y-28849
X81528Y-29349
X81528Y-29949
X81528Y-30449
X81742Y-25207
X81795Y-38458
X81831Y-45472
X81845Y-40354
X81865Y-20239
X81890Y-33386
X81890Y-43504
X81890Y-41930
X81890Y-42430
X81890Y-43030
X81929Y-37126
X81929Y-35552
X81929Y-36052
X81929Y-36652
X81995Y-31739
X82027Y-27538
X82028Y-23140
X82028Y-30423
X82028Y-21566
X82028Y-22066
X82028Y-22666
X82028Y-28849
X82028Y-29349
X82028Y-29949
X82250Y-12550
X82390Y-41930
X82390Y-42430
X82390Y-43030
X82390Y-43530
X82429Y-35552
X82429Y-36052
X82429Y-36652
X82429Y-37152
X82528Y-21566
X82528Y-22066
X82528Y-22666
X82528Y-23166
X82528Y-28849
X82528Y-29349
X82528Y-29949
X82528Y-30449
X82598Y-44882
X82622Y-18902
X82638Y-40394
X82726Y-20069
X82776Y-24636
X82795Y-38504
X82815Y-27461
X82835Y-33780
X82835Y-34094
X82890Y-41930
X82890Y-42430
X82890Y-43030
X82890Y-43530
X82929Y-35552
X82929Y-36052
X82929Y-36652
X82929Y-37152
X82953Y-45000
X82963Y-31890
X83028Y-21566
X83028Y-22066
X83028Y-22666
X83028Y-23166
X83028Y-28849
X83028Y-29349
X83028Y-29949
X83028Y-30449
X83067Y-16898
X83071Y-16394
X83079Y-17402
X83091Y-15890
X83402Y-47803
X83563Y-25187
X83650Y-48161
X83650Y-48535
X83800Y-31100
X83856Y-15150
X83858Y-44980
X83898Y-15890
X83898Y-16394
X83898Y-16898
X83898Y-17402
X84010Y-37900
X84100Y-41100
X84213Y-38425
X84443Y-42990
X84459Y-31713
X84537Y-22933
X84547Y-43349
X84567Y-22520
X84600Y-14575
X84606Y-30974
X84626Y-24331
X84626Y-29833
X84665Y-23435
X84675Y-30285
X84744Y-41732
X84750Y-12300
X84799Y-28400
X84825Y-47275
X84882Y-34488
X84882Y-35276
X84882Y-37402
X85226Y-20581
X85256Y-21467
X85275Y-41500
X85295Y-28740
X85325Y-47300
X85575Y-12300
X85665Y-14689
X85689Y-32047
X85700Y-44950
X85703Y-18299
X85781Y-40100
X86050Y-47275
X86132Y-31673
X86185Y-17587
X86220Y-15583
X86225Y-12433
X86250Y-14625
X86299Y-36220
X86299Y-36614
X86300Y-40700
X86300Y-44850
X86400Y-43300
X86531Y-28898
X86762Y-31673
X86825Y-42200
X86917Y-35862
X87157Y-20547
X87750Y-39900
X87800Y-40600
X87925Y-39550
X88025Y-46250
X88025Y-46750
T2
X51500Y-41700
X51500Y-42700
X51500Y-43700
X51500Y-44700
X51500Y-45700
X52500Y-41700
X52500Y-42700
X52500Y-43700
X52500Y-44700
X52500Y-45700
X52400Y-16400
X52400Y-17384
X52400Y-18369
X52400Y-19353
X52400Y-20337
X52400Y-21321
X51500Y-33500
X51500Y-34500
X51500Y-35500
X51500Y-36500
X51500Y-37500
X51500Y-38500
X51500Y-39500
X51500Y-40500
X80425Y-12508
X80425Y-13508
X80425Y-14508
X81425Y-12508
X81425Y-13508
X81425Y-14508
X70571Y-49783
X71555Y-49783
X72539Y-49783
X73524Y-49783
X59300Y-12920
X60284Y-12920
X61269Y-12920
X54626Y-49783
X55610Y-49783
X56594Y-49783
X57579Y-49783
X55116Y-12900
X56100Y-12900
X57084Y-12900
X63520Y-12920
X64504Y-12920
X65489Y-12920
X67900Y-12937
X68884Y-12937
X69869Y-12937
X59941Y-49783
X60925Y-49783
X61909Y-49783
X62894Y-49783
X65256Y-49783
X66240Y-49783
X67224Y-49783
X68209Y-49783
X76480Y-13000
X77464Y-13000
X78449Y-13000
X72193Y-12972
X73177Y-12972
X74161Y-12972
T3
X88400Y-16100
X88400Y-17100
X88400Y-18100
X88400Y-19100
X88543Y-21301
X88543Y-22301
X88543Y-23301
X88543Y-24301
X88484Y-34697
X88484Y-35697
X88484Y-36697
X88484Y-37697
X88540Y-28520
X88540Y-29520
X88540Y-30520
X88540Y-31520
X88540Y-41480
X88540Y-42480
X88540Y-43480
X88540Y-44480
T4
X80866Y-49606
X82866Y-49606
X52200Y-25400
X52200Y-27400
T5
X88300Y-13300
X88000Y-49000
X52100Y-49400
X52500Y-13600
T0
M30
