%TF.GenerationSoftware,KiCad,Pcbnew,(5.0.0)*%
%TF.CreationDate,2018-08-10T17:36:29+10:00*%
%TF.ProjectId,MotorDriver,4D6F746F724472697665722E6B696361,rev?*%
%TF.SameCoordinates,Original*%
%TF.FileFunction,Legend,Bot*%
%TF.FilePolarity,Positive*%
%FSLAX46Y46*%
G04 Gerber Fmt 4.6, Leading zero omitted, Abs format (unit mm)*
G04 Created by KiCad (PCBNEW (5.0.0)) date 08/10/18 17:36:29*
%MOMM*%
%LPD*%
G01*
G04 APERTURE LIST*
%ADD10C,0.203200*%
%ADD11C,0.200000*%
%ADD12C,0.500000*%
%ADD13C,0.120000*%
%ADD14C,0.050000*%
%ADD15C,0.150000*%
G04 APERTURE END LIST*
D10*
X209890000Y-37610000D02*
X209890000Y-47210000D01*
X209890000Y-47210000D02*
X214190000Y-47210000D01*
X214190000Y-47210000D02*
X214190000Y-37610000D01*
X214190000Y-37610000D02*
X209890000Y-37610000D01*
X213665000Y-38585000D02*
G75*
G03X213665000Y-38585000I-325000J0D01*
G01*
D11*
X205135600Y-105008800D02*
X205435600Y-105008800D01*
X205135600Y-105308800D02*
X205135600Y-105008800D01*
X212135600Y-105008800D02*
X212135600Y-105308800D01*
X211835600Y-105008800D02*
X212135600Y-105008800D01*
X212135600Y-112008800D02*
X211835600Y-112008800D01*
X212135600Y-111708800D02*
X212135600Y-112008800D01*
X205135600Y-112008800D02*
X205135600Y-111708800D01*
X205435600Y-112008800D02*
X205135600Y-112008800D01*
D12*
X204935600Y-112308800D02*
G75*
G03X204935600Y-112308800I-100000J0D01*
G01*
D13*
X215400000Y-112250000D02*
X215400000Y-111250000D01*
X217100000Y-111250000D02*
X217100000Y-112250000D01*
X134768000Y-60016000D02*
G75*
G03X134768000Y-60016000I-2180000J0D01*
G01*
X134768000Y-74096000D02*
G75*
G03X134768000Y-74096000I-2180000J0D01*
G01*
D11*
X205250000Y-88750000D02*
X205550000Y-88750000D01*
X205250000Y-89050000D02*
X205250000Y-88750000D01*
X212250000Y-88750000D02*
X212250000Y-89050000D01*
X211950000Y-88750000D02*
X212250000Y-88750000D01*
X212250000Y-95750000D02*
X211950000Y-95750000D01*
X212250000Y-95450000D02*
X212250000Y-95750000D01*
X205250000Y-95750000D02*
X205250000Y-95450000D01*
X205550000Y-95750000D02*
X205250000Y-95750000D01*
D12*
X205050000Y-96050000D02*
G75*
G03X205050000Y-96050000I-100000J0D01*
G01*
D13*
X218384500Y-101004000D02*
X219384500Y-101004000D01*
X219384500Y-102704000D02*
X218384500Y-102704000D01*
X215621500Y-80065500D02*
X215621500Y-79065500D01*
X217321500Y-79065500D02*
X217321500Y-80065500D01*
X213090000Y-35330000D02*
X214090000Y-35330000D01*
X214090000Y-37030000D02*
X213090000Y-37030000D01*
X215781000Y-31890000D02*
X216781000Y-31890000D01*
X216781000Y-33590000D02*
X215781000Y-33590000D01*
X212250000Y-30810000D02*
X213250000Y-30810000D01*
X213250000Y-32510000D02*
X212250000Y-32510000D01*
X214320500Y-63158000D02*
X215320500Y-63158000D01*
X215320500Y-64858000D02*
X214320500Y-64858000D01*
D12*
X205400000Y-79050000D02*
G75*
G03X205400000Y-79050000I-100000J0D01*
G01*
D11*
X205900000Y-78750000D02*
X205600000Y-78750000D01*
X205600000Y-78750000D02*
X205600000Y-78450000D01*
X212600000Y-78450000D02*
X212600000Y-78750000D01*
X212600000Y-78750000D02*
X212300000Y-78750000D01*
X212300000Y-71750000D02*
X212600000Y-71750000D01*
X212600000Y-71750000D02*
X212600000Y-72050000D01*
X205600000Y-72050000D02*
X205600000Y-71750000D01*
X205600000Y-71750000D02*
X205900000Y-71750000D01*
D12*
X205175000Y-60625000D02*
G75*
G03X205175000Y-60625000I-100000J0D01*
G01*
D11*
X205675000Y-60325000D02*
X205375000Y-60325000D01*
X205375000Y-60325000D02*
X205375000Y-60025000D01*
X212375000Y-60025000D02*
X212375000Y-60325000D01*
X212375000Y-60325000D02*
X212075000Y-60325000D01*
X212075000Y-53325000D02*
X212375000Y-53325000D01*
X212375000Y-53325000D02*
X212375000Y-53625000D01*
X205375000Y-53625000D02*
X205375000Y-53325000D01*
X205375000Y-53325000D02*
X205675000Y-53325000D01*
D13*
X217160000Y-126000000D02*
G75*
G03X217160000Y-126000000I-2180000J0D01*
G01*
X203080000Y-126000000D02*
G75*
G03X203080000Y-126000000I-2180000J0D01*
G01*
X213490000Y-33200000D02*
X212290000Y-33200000D01*
X212290000Y-34960000D02*
X213490000Y-34960000D01*
D14*
X212537596Y-36018398D02*
X212537596Y-36829064D01*
X212489909Y-36924436D01*
X212442223Y-36972122D01*
X212346851Y-37019808D01*
X212156106Y-37019808D01*
X212060734Y-36972122D01*
X212013047Y-36924436D01*
X211965361Y-36829064D01*
X211965361Y-36018398D01*
X210963951Y-37019808D02*
X211536186Y-37019808D01*
X211250068Y-37019808D02*
X211250068Y-36018398D01*
X211345441Y-36161457D01*
X211440813Y-36256829D01*
X211536186Y-36304515D01*
X215819631Y-48749107D02*
X215819631Y-47745667D01*
X215580716Y-47745667D01*
X215437368Y-47793450D01*
X215341802Y-47889015D01*
X215294019Y-47984581D01*
X215246236Y-48175712D01*
X215246236Y-48319061D01*
X215294019Y-48510192D01*
X215341802Y-48605758D01*
X215437368Y-48701324D01*
X215580716Y-48749107D01*
X215819631Y-48749107D01*
X214242796Y-48749107D02*
X214577276Y-48271278D01*
X214816191Y-48749107D02*
X214816191Y-47745667D01*
X214433928Y-47745667D01*
X214338362Y-47793450D01*
X214290579Y-47841232D01*
X214242796Y-47936798D01*
X214242796Y-48080147D01*
X214290579Y-48175712D01*
X214338362Y-48223495D01*
X214433928Y-48271278D01*
X214816191Y-48271278D01*
X213956099Y-47745667D02*
X213621619Y-48749107D01*
X213287139Y-47745667D01*
X212809311Y-48175712D02*
X212904876Y-48127930D01*
X212952659Y-48080147D01*
X213000442Y-47984581D01*
X213000442Y-47936798D01*
X212952659Y-47841232D01*
X212904876Y-47793450D01*
X212809311Y-47745667D01*
X212618179Y-47745667D01*
X212522613Y-47793450D01*
X212474831Y-47841232D01*
X212427048Y-47936798D01*
X212427048Y-47984581D01*
X212474831Y-48080147D01*
X212522613Y-48127930D01*
X212618179Y-48175712D01*
X212809311Y-48175712D01*
X212904876Y-48223495D01*
X212952659Y-48271278D01*
X213000442Y-48366844D01*
X213000442Y-48557975D01*
X212952659Y-48653541D01*
X212904876Y-48701324D01*
X212809311Y-48749107D01*
X212618179Y-48749107D01*
X212522613Y-48701324D01*
X212474831Y-48653541D01*
X212427048Y-48557975D01*
X212427048Y-48366844D01*
X212474831Y-48271278D01*
X212522613Y-48223495D01*
X212618179Y-48175712D01*
X211853653Y-48175712D02*
X211949219Y-48127930D01*
X211997002Y-48080147D01*
X212044785Y-47984581D01*
X212044785Y-47936798D01*
X211997002Y-47841232D01*
X211949219Y-47793450D01*
X211853653Y-47745667D01*
X211662522Y-47745667D01*
X211566956Y-47793450D01*
X211519173Y-47841232D01*
X211471391Y-47936798D01*
X211471391Y-47984581D01*
X211519173Y-48080147D01*
X211566956Y-48127930D01*
X211662522Y-48175712D01*
X211853653Y-48175712D01*
X211949219Y-48223495D01*
X211997002Y-48271278D01*
X212044785Y-48366844D01*
X212044785Y-48557975D01*
X211997002Y-48653541D01*
X211949219Y-48701324D01*
X211853653Y-48749107D01*
X211662522Y-48749107D01*
X211566956Y-48701324D01*
X211519173Y-48653541D01*
X211471391Y-48557975D01*
X211471391Y-48366844D01*
X211519173Y-48271278D01*
X211566956Y-48223495D01*
X211662522Y-48175712D01*
X211089128Y-47841232D02*
X211041345Y-47793450D01*
X210945779Y-47745667D01*
X210706865Y-47745667D01*
X210611299Y-47793450D01*
X210563516Y-47841232D01*
X210515733Y-47936798D01*
X210515733Y-48032364D01*
X210563516Y-48175712D01*
X211136911Y-48749107D01*
X210515733Y-48749107D01*
X209607859Y-47745667D02*
X210085688Y-47745667D01*
X210133471Y-48223495D01*
X210085688Y-48175712D01*
X209990122Y-48127930D01*
X209751208Y-48127930D01*
X209655642Y-48175712D01*
X209607859Y-48223495D01*
X209560076Y-48319061D01*
X209560076Y-48557975D01*
X209607859Y-48653541D01*
X209655642Y-48701324D01*
X209751208Y-48749107D01*
X209990122Y-48749107D01*
X210085688Y-48701324D01*
X210133471Y-48653541D01*
X209130031Y-48749107D02*
X209130031Y-47745667D01*
X208747768Y-47745667D01*
X208652202Y-47793450D01*
X208604419Y-47841232D01*
X208556636Y-47936798D01*
X208556636Y-48080147D01*
X208604419Y-48175712D01*
X208652202Y-48223495D01*
X208747768Y-48271278D01*
X209130031Y-48271278D01*
X208222156Y-47745667D02*
X207983242Y-48749107D01*
X207792111Y-48032364D01*
X207600979Y-48749107D01*
X207362065Y-47745667D01*
X206979802Y-48749107D02*
X206979802Y-47745667D01*
X206597539Y-47745667D01*
X206501973Y-47793450D01*
X206454191Y-47841232D01*
X206406408Y-47936798D01*
X206406408Y-48080147D01*
X206454191Y-48175712D01*
X206501973Y-48223495D01*
X206597539Y-48271278D01*
X206979802Y-48271278D01*
X192950681Y-108647127D02*
X192950681Y-109323424D01*
X194134201Y-108985276D02*
X192950681Y-108985276D01*
X194134201Y-109717931D02*
X192950681Y-109717931D01*
X193796053Y-110112438D01*
X192950681Y-110506944D01*
X194134201Y-110506944D01*
X194021485Y-111746822D02*
X194077843Y-111690464D01*
X194134201Y-111521390D01*
X194134201Y-111408674D01*
X194077843Y-111239600D01*
X193965127Y-111126883D01*
X193852411Y-111070525D01*
X193626979Y-111014167D01*
X193457904Y-111014167D01*
X193232472Y-111070525D01*
X193119756Y-111126883D01*
X193007040Y-111239600D01*
X192950681Y-111408674D01*
X192950681Y-111521390D01*
X193007040Y-111690464D01*
X193063398Y-111746822D01*
X193063398Y-112197687D02*
X193007040Y-112254045D01*
X192950681Y-112366761D01*
X192950681Y-112648552D01*
X193007040Y-112761268D01*
X193063398Y-112817626D01*
X193176114Y-112873984D01*
X193288830Y-112873984D01*
X193457904Y-112817626D01*
X194134201Y-112141329D01*
X194134201Y-112873984D01*
X194134201Y-114001146D02*
X194134201Y-113324849D01*
X194134201Y-113662998D02*
X192950681Y-113662998D01*
X193119756Y-113550281D01*
X193232472Y-113437565D01*
X193288830Y-113324849D01*
X192950681Y-114395653D02*
X192950681Y-115128308D01*
X193401546Y-114733801D01*
X193401546Y-114902876D01*
X193457904Y-115015592D01*
X193514262Y-115071950D01*
X193626979Y-115128308D01*
X193908769Y-115128308D01*
X194021485Y-115071950D01*
X194077843Y-115015592D01*
X194134201Y-114902876D01*
X194134201Y-114564727D01*
X194077843Y-114452011D01*
X194021485Y-114395653D01*
X192950681Y-115860963D02*
X192950681Y-115973680D01*
X193007040Y-116086396D01*
X193063398Y-116142754D01*
X193176114Y-116199112D01*
X193401546Y-116255470D01*
X193683337Y-116255470D01*
X193908769Y-116199112D01*
X194021485Y-116142754D01*
X194077843Y-116086396D01*
X194134201Y-115973680D01*
X194134201Y-115860963D01*
X194077843Y-115748247D01*
X194021485Y-115691889D01*
X193908769Y-115635531D01*
X193683337Y-115579173D01*
X193401546Y-115579173D01*
X193176114Y-115635531D01*
X193063398Y-115691889D01*
X193007040Y-115748247D01*
X192950681Y-115860963D01*
X193683337Y-116762693D02*
X193683337Y-117664422D01*
X192950681Y-118058929D02*
X192950681Y-118735226D01*
X194134201Y-118397078D02*
X192950681Y-118397078D01*
X193796053Y-119073375D02*
X193796053Y-119636956D01*
X194134201Y-118960659D02*
X192950681Y-119355165D01*
X194134201Y-119749672D01*
D15*
X215107142Y-111583333D02*
X215154761Y-111535714D01*
X215202380Y-111392857D01*
X215202380Y-111297619D01*
X215154761Y-111154761D01*
X215059523Y-111059523D01*
X214964285Y-111011904D01*
X214773809Y-110964285D01*
X214630952Y-110964285D01*
X214440476Y-111011904D01*
X214345238Y-111059523D01*
X214250000Y-111154761D01*
X214202380Y-111297619D01*
X214202380Y-111392857D01*
X214250000Y-111535714D01*
X214297619Y-111583333D01*
X214202380Y-112488095D02*
X214202380Y-112011904D01*
X214678571Y-111964285D01*
X214630952Y-112011904D01*
X214583333Y-112107142D01*
X214583333Y-112345238D01*
X214630952Y-112440476D01*
X214678571Y-112488095D01*
X214773809Y-112535714D01*
X215011904Y-112535714D01*
X215107142Y-112488095D01*
X215154761Y-112440476D01*
X215202380Y-112345238D01*
X215202380Y-112107142D01*
X215154761Y-112011904D01*
X215107142Y-111964285D01*
D14*
X208533669Y-91106815D02*
X207349079Y-91106815D01*
X208420851Y-92347814D02*
X208477260Y-92291405D01*
X208533669Y-92122178D01*
X208533669Y-92009360D01*
X208477260Y-91840133D01*
X208364442Y-91727315D01*
X208251624Y-91670906D01*
X208025988Y-91614496D01*
X207856761Y-91614496D01*
X207631125Y-91670906D01*
X207518307Y-91727315D01*
X207405489Y-91840133D01*
X207349079Y-92009360D01*
X207349079Y-92122178D01*
X207405489Y-92291405D01*
X207461898Y-92347814D01*
X207461898Y-92799086D02*
X207405489Y-92855496D01*
X207349079Y-92968314D01*
X207349079Y-93250359D01*
X207405489Y-93363177D01*
X207461898Y-93419586D01*
X207574716Y-93475995D01*
X207687534Y-93475995D01*
X207856761Y-93419586D01*
X208533669Y-92742677D01*
X208533669Y-93475995D01*
X207350343Y-86698727D02*
X207350343Y-87375024D01*
X208533863Y-87036876D02*
X207350343Y-87036876D01*
X208533863Y-87769531D02*
X207350343Y-87769531D01*
X208195715Y-88164038D01*
X207350343Y-88558544D01*
X208533863Y-88558544D01*
X208421147Y-89798422D02*
X208477505Y-89742064D01*
X208533863Y-89572990D01*
X208533863Y-89460274D01*
X208477505Y-89291200D01*
X208364789Y-89178483D01*
X208252073Y-89122125D01*
X208026641Y-89065767D01*
X207857566Y-89065767D01*
X207632134Y-89122125D01*
X207519418Y-89178483D01*
X207406702Y-89291200D01*
X207350343Y-89460274D01*
X207350343Y-89572990D01*
X207406702Y-89742064D01*
X207463060Y-89798422D01*
X207463060Y-90249287D02*
X207406702Y-90305645D01*
X207350343Y-90418361D01*
X207350343Y-90700152D01*
X207406702Y-90812868D01*
X207463060Y-90869226D01*
X207575776Y-90925584D01*
X207688492Y-90925584D01*
X207857566Y-90869226D01*
X208533863Y-90192929D01*
X208533863Y-90925584D01*
X208533863Y-92052746D02*
X208533863Y-91376449D01*
X208533863Y-91714598D02*
X207350343Y-91714598D01*
X207519418Y-91601881D01*
X207632134Y-91489165D01*
X207688492Y-91376449D01*
X207350343Y-92447253D02*
X207350343Y-93179908D01*
X207801208Y-92785401D01*
X207801208Y-92954476D01*
X207857566Y-93067192D01*
X207913924Y-93123550D01*
X208026641Y-93179908D01*
X208308431Y-93179908D01*
X208421147Y-93123550D01*
X208477505Y-93067192D01*
X208533863Y-92954476D01*
X208533863Y-92616327D01*
X208477505Y-92503611D01*
X208421147Y-92447253D01*
X207350343Y-93912563D02*
X207350343Y-94025280D01*
X207406702Y-94137996D01*
X207463060Y-94194354D01*
X207575776Y-94250712D01*
X207801208Y-94307070D01*
X208082999Y-94307070D01*
X208308431Y-94250712D01*
X208421147Y-94194354D01*
X208477505Y-94137996D01*
X208533863Y-94025280D01*
X208533863Y-93912563D01*
X208477505Y-93799847D01*
X208421147Y-93743489D01*
X208308431Y-93687131D01*
X208082999Y-93630773D01*
X207801208Y-93630773D01*
X207575776Y-93687131D01*
X207463060Y-93743489D01*
X207406702Y-93799847D01*
X207350343Y-93912563D01*
X208082999Y-94814293D02*
X208082999Y-95716022D01*
X207350343Y-96110529D02*
X207350343Y-96786826D01*
X208533863Y-96448678D02*
X207350343Y-96448678D01*
X208195715Y-97124975D02*
X208195715Y-97688556D01*
X208533863Y-97012259D02*
X207350343Y-97406765D01*
X208533863Y-97801272D01*
D15*
X219079357Y-103711142D02*
X219126976Y-103758761D01*
X219269833Y-103806380D01*
X219365071Y-103806380D01*
X219507928Y-103758761D01*
X219603166Y-103663523D01*
X219650785Y-103568285D01*
X219698404Y-103377809D01*
X219698404Y-103234952D01*
X219650785Y-103044476D01*
X219603166Y-102949238D01*
X219507928Y-102854000D01*
X219365071Y-102806380D01*
X219269833Y-102806380D01*
X219126976Y-102854000D01*
X219079357Y-102901619D01*
X218126976Y-103806380D02*
X218698404Y-103806380D01*
X218412690Y-103806380D02*
X218412690Y-102806380D01*
X218507928Y-102949238D01*
X218603166Y-103044476D01*
X218698404Y-103092095D01*
X217222214Y-102806380D02*
X217698404Y-102806380D01*
X217746023Y-103282571D01*
X217698404Y-103234952D01*
X217603166Y-103187333D01*
X217365071Y-103187333D01*
X217269833Y-103234952D01*
X217222214Y-103282571D01*
X217174595Y-103377809D01*
X217174595Y-103615904D01*
X217222214Y-103711142D01*
X217269833Y-103758761D01*
X217365071Y-103806380D01*
X217603166Y-103806380D01*
X217698404Y-103758761D01*
X217746023Y-103711142D01*
X218328642Y-80983642D02*
X218376261Y-80936023D01*
X218423880Y-80793166D01*
X218423880Y-80697928D01*
X218376261Y-80555071D01*
X218281023Y-80459833D01*
X218185785Y-80412214D01*
X217995309Y-80364595D01*
X217852452Y-80364595D01*
X217661976Y-80412214D01*
X217566738Y-80459833D01*
X217471500Y-80555071D01*
X217423880Y-80697928D01*
X217423880Y-80793166D01*
X217471500Y-80936023D01*
X217519119Y-80983642D01*
X217519119Y-81364595D02*
X217471500Y-81412214D01*
X217423880Y-81507452D01*
X217423880Y-81745547D01*
X217471500Y-81840785D01*
X217519119Y-81888404D01*
X217614357Y-81936023D01*
X217709595Y-81936023D01*
X217852452Y-81888404D01*
X218423880Y-81316976D01*
X218423880Y-81936023D01*
X217423880Y-82269357D02*
X217423880Y-82888404D01*
X217804833Y-82555071D01*
X217804833Y-82697928D01*
X217852452Y-82793166D01*
X217900071Y-82840785D01*
X217995309Y-82888404D01*
X218233404Y-82888404D01*
X218328642Y-82840785D01*
X218376261Y-82793166D01*
X218423880Y-82697928D01*
X218423880Y-82412214D01*
X218376261Y-82316976D01*
X218328642Y-82269357D01*
X215796857Y-36680857D02*
X215749238Y-36728476D01*
X215701619Y-36871333D01*
X215701619Y-36966571D01*
X215749238Y-37109428D01*
X215844476Y-37204666D01*
X215939714Y-37252285D01*
X216130190Y-37299904D01*
X216273047Y-37299904D01*
X216463523Y-37252285D01*
X216558761Y-37204666D01*
X216654000Y-37109428D01*
X216701619Y-36966571D01*
X216701619Y-36871333D01*
X216654000Y-36728476D01*
X216606380Y-36680857D01*
X216606380Y-36299904D02*
X216654000Y-36252285D01*
X216701619Y-36157047D01*
X216701619Y-35918952D01*
X216654000Y-35823714D01*
X216606380Y-35776095D01*
X216511142Y-35728476D01*
X216415904Y-35728476D01*
X216273047Y-35776095D01*
X215701619Y-36347523D01*
X215701619Y-35728476D01*
X216701619Y-34871333D02*
X216701619Y-35061809D01*
X216654000Y-35157047D01*
X216606380Y-35204666D01*
X216463523Y-35299904D01*
X216273047Y-35347523D01*
X215892095Y-35347523D01*
X215796857Y-35299904D01*
X215749238Y-35252285D01*
X215701619Y-35157047D01*
X215701619Y-34966571D01*
X215749238Y-34871333D01*
X215796857Y-34823714D01*
X215892095Y-34776095D01*
X216130190Y-34776095D01*
X216225428Y-34823714D01*
X216273047Y-34871333D01*
X216320666Y-34966571D01*
X216320666Y-35157047D01*
X216273047Y-35252285D01*
X216225428Y-35299904D01*
X216130190Y-35347523D01*
X220414357Y-34912642D02*
X220461976Y-34960261D01*
X220604833Y-35007880D01*
X220700071Y-35007880D01*
X220842928Y-34960261D01*
X220938166Y-34865023D01*
X220985785Y-34769785D01*
X221033404Y-34579309D01*
X221033404Y-34436452D01*
X220985785Y-34245976D01*
X220938166Y-34150738D01*
X220842928Y-34055500D01*
X220700071Y-34007880D01*
X220604833Y-34007880D01*
X220461976Y-34055500D01*
X220414357Y-34103119D01*
X220033404Y-34103119D02*
X219985785Y-34055500D01*
X219890547Y-34007880D01*
X219652452Y-34007880D01*
X219557214Y-34055500D01*
X219509595Y-34103119D01*
X219461976Y-34198357D01*
X219461976Y-34293595D01*
X219509595Y-34436452D01*
X220081023Y-35007880D01*
X219461976Y-35007880D01*
X219128642Y-34007880D02*
X218461976Y-34007880D01*
X218890547Y-35007880D01*
X210192857Y-33197142D02*
X210240476Y-33244761D01*
X210383333Y-33292380D01*
X210478571Y-33292380D01*
X210621428Y-33244761D01*
X210716666Y-33149523D01*
X210764285Y-33054285D01*
X210811904Y-32863809D01*
X210811904Y-32720952D01*
X210764285Y-32530476D01*
X210716666Y-32435238D01*
X210621428Y-32340000D01*
X210478571Y-32292380D01*
X210383333Y-32292380D01*
X210240476Y-32340000D01*
X210192857Y-32387619D01*
X209811904Y-32387619D02*
X209764285Y-32340000D01*
X209669047Y-32292380D01*
X209430952Y-32292380D01*
X209335714Y-32340000D01*
X209288095Y-32387619D01*
X209240476Y-32482857D01*
X209240476Y-32578095D01*
X209288095Y-32720952D01*
X209859523Y-33292380D01*
X209240476Y-33292380D01*
X208764285Y-33292380D02*
X208573809Y-33292380D01*
X208478571Y-33244761D01*
X208430952Y-33197142D01*
X208335714Y-33054285D01*
X208288095Y-32863809D01*
X208288095Y-32482857D01*
X208335714Y-32387619D01*
X208383333Y-32340000D01*
X208478571Y-32292380D01*
X208669047Y-32292380D01*
X208764285Y-32340000D01*
X208811904Y-32387619D01*
X208859523Y-32482857D01*
X208859523Y-32720952D01*
X208811904Y-32816190D01*
X208764285Y-32863809D01*
X208669047Y-32911428D01*
X208478571Y-32911428D01*
X208383333Y-32863809D01*
X208335714Y-32816190D01*
X208288095Y-32720952D01*
X219207357Y-64071142D02*
X219254976Y-64118761D01*
X219397833Y-64166380D01*
X219493071Y-64166380D01*
X219635928Y-64118761D01*
X219731166Y-64023523D01*
X219778785Y-63928285D01*
X219826404Y-63737809D01*
X219826404Y-63594952D01*
X219778785Y-63404476D01*
X219731166Y-63309238D01*
X219635928Y-63214000D01*
X219493071Y-63166380D01*
X219397833Y-63166380D01*
X219254976Y-63214000D01*
X219207357Y-63261619D01*
X218350214Y-63166380D02*
X218540690Y-63166380D01*
X218635928Y-63214000D01*
X218683547Y-63261619D01*
X218778785Y-63404476D01*
X218826404Y-63594952D01*
X218826404Y-63975904D01*
X218778785Y-64071142D01*
X218731166Y-64118761D01*
X218635928Y-64166380D01*
X218445452Y-64166380D01*
X218350214Y-64118761D01*
X218302595Y-64071142D01*
X218254976Y-63975904D01*
X218254976Y-63737809D01*
X218302595Y-63642571D01*
X218350214Y-63594952D01*
X218445452Y-63547333D01*
X218635928Y-63547333D01*
X218731166Y-63594952D01*
X218778785Y-63642571D01*
X218826404Y-63737809D01*
X217635928Y-63166380D02*
X217540690Y-63166380D01*
X217445452Y-63214000D01*
X217397833Y-63261619D01*
X217350214Y-63356857D01*
X217302595Y-63547333D01*
X217302595Y-63785428D01*
X217350214Y-63975904D01*
X217397833Y-64071142D01*
X217445452Y-64118761D01*
X217540690Y-64166380D01*
X217635928Y-64166380D01*
X217731166Y-64118761D01*
X217778785Y-64071142D01*
X217826404Y-63975904D01*
X217874023Y-63785428D01*
X217874023Y-63547333D01*
X217826404Y-63356857D01*
X217778785Y-63261619D01*
X217731166Y-63214000D01*
X217635928Y-63166380D01*
D14*
X208883669Y-74093614D02*
X207699079Y-74093614D01*
X208770851Y-75334613D02*
X208827260Y-75278204D01*
X208883669Y-75108977D01*
X208883669Y-74996159D01*
X208827260Y-74826932D01*
X208714442Y-74714114D01*
X208601624Y-74657705D01*
X208375988Y-74601295D01*
X208206761Y-74601295D01*
X207981125Y-74657705D01*
X207868307Y-74714114D01*
X207755489Y-74826932D01*
X207699079Y-74996159D01*
X207699079Y-75108977D01*
X207755489Y-75278204D01*
X207811898Y-75334613D01*
X207699079Y-75729476D02*
X207699079Y-76462794D01*
X208150352Y-76067931D01*
X208150352Y-76237158D01*
X208206761Y-76349976D01*
X208263170Y-76406385D01*
X208375988Y-76462794D01*
X208658033Y-76462794D01*
X208770851Y-76406385D01*
X208827260Y-76349976D01*
X208883669Y-76237158D01*
X208883669Y-75898704D01*
X208827260Y-75785885D01*
X208770851Y-75729476D01*
X207700343Y-69698727D02*
X207700343Y-70375024D01*
X208883863Y-70036876D02*
X207700343Y-70036876D01*
X208883863Y-70769531D02*
X207700343Y-70769531D01*
X208545715Y-71164038D01*
X207700343Y-71558544D01*
X208883863Y-71558544D01*
X208771147Y-72798422D02*
X208827505Y-72742064D01*
X208883863Y-72572990D01*
X208883863Y-72460274D01*
X208827505Y-72291200D01*
X208714789Y-72178483D01*
X208602073Y-72122125D01*
X208376641Y-72065767D01*
X208207566Y-72065767D01*
X207982134Y-72122125D01*
X207869418Y-72178483D01*
X207756702Y-72291200D01*
X207700343Y-72460274D01*
X207700343Y-72572990D01*
X207756702Y-72742064D01*
X207813060Y-72798422D01*
X207813060Y-73249287D02*
X207756702Y-73305645D01*
X207700343Y-73418361D01*
X207700343Y-73700152D01*
X207756702Y-73812868D01*
X207813060Y-73869226D01*
X207925776Y-73925584D01*
X208038492Y-73925584D01*
X208207566Y-73869226D01*
X208883863Y-73192929D01*
X208883863Y-73925584D01*
X208883863Y-75052746D02*
X208883863Y-74376449D01*
X208883863Y-74714598D02*
X207700343Y-74714598D01*
X207869418Y-74601881D01*
X207982134Y-74489165D01*
X208038492Y-74376449D01*
X207700343Y-75447253D02*
X207700343Y-76179908D01*
X208151208Y-75785401D01*
X208151208Y-75954476D01*
X208207566Y-76067192D01*
X208263924Y-76123550D01*
X208376641Y-76179908D01*
X208658431Y-76179908D01*
X208771147Y-76123550D01*
X208827505Y-76067192D01*
X208883863Y-75954476D01*
X208883863Y-75616327D01*
X208827505Y-75503611D01*
X208771147Y-75447253D01*
X207700343Y-76912563D02*
X207700343Y-77025280D01*
X207756702Y-77137996D01*
X207813060Y-77194354D01*
X207925776Y-77250712D01*
X208151208Y-77307070D01*
X208432999Y-77307070D01*
X208658431Y-77250712D01*
X208771147Y-77194354D01*
X208827505Y-77137996D01*
X208883863Y-77025280D01*
X208883863Y-76912563D01*
X208827505Y-76799847D01*
X208771147Y-76743489D01*
X208658431Y-76687131D01*
X208432999Y-76630773D01*
X208151208Y-76630773D01*
X207925776Y-76687131D01*
X207813060Y-76743489D01*
X207756702Y-76799847D01*
X207700343Y-76912563D01*
X208432999Y-77814293D02*
X208432999Y-78716022D01*
X207700343Y-79110529D02*
X207700343Y-79786826D01*
X208883863Y-79448678D02*
X207700343Y-79448678D01*
X208545715Y-80124975D02*
X208545715Y-80688556D01*
X208883863Y-80012259D02*
X207700343Y-80406765D01*
X208883863Y-80801272D01*
X208658669Y-55668614D02*
X207474079Y-55668614D01*
X208545851Y-56909613D02*
X208602260Y-56853204D01*
X208658669Y-56683977D01*
X208658669Y-56571159D01*
X208602260Y-56401932D01*
X208489442Y-56289114D01*
X208376624Y-56232705D01*
X208150988Y-56176295D01*
X207981761Y-56176295D01*
X207756125Y-56232705D01*
X207643307Y-56289114D01*
X207530489Y-56401932D01*
X207474079Y-56571159D01*
X207474079Y-56683977D01*
X207530489Y-56853204D01*
X207586898Y-56909613D01*
X207868943Y-57924976D02*
X208658669Y-57924976D01*
X207417670Y-57642931D02*
X208263806Y-57360885D01*
X208263806Y-58094203D01*
X207475343Y-51273727D02*
X207475343Y-51950024D01*
X208658863Y-51611876D02*
X207475343Y-51611876D01*
X208658863Y-52344531D02*
X207475343Y-52344531D01*
X208320715Y-52739038D01*
X207475343Y-53133544D01*
X208658863Y-53133544D01*
X208546147Y-54373422D02*
X208602505Y-54317064D01*
X208658863Y-54147990D01*
X208658863Y-54035274D01*
X208602505Y-53866200D01*
X208489789Y-53753483D01*
X208377073Y-53697125D01*
X208151641Y-53640767D01*
X207982566Y-53640767D01*
X207757134Y-53697125D01*
X207644418Y-53753483D01*
X207531702Y-53866200D01*
X207475343Y-54035274D01*
X207475343Y-54147990D01*
X207531702Y-54317064D01*
X207588060Y-54373422D01*
X207588060Y-54824287D02*
X207531702Y-54880645D01*
X207475343Y-54993361D01*
X207475343Y-55275152D01*
X207531702Y-55387868D01*
X207588060Y-55444226D01*
X207700776Y-55500584D01*
X207813492Y-55500584D01*
X207982566Y-55444226D01*
X208658863Y-54767929D01*
X208658863Y-55500584D01*
X208658863Y-56627746D02*
X208658863Y-55951449D01*
X208658863Y-56289598D02*
X207475343Y-56289598D01*
X207644418Y-56176881D01*
X207757134Y-56064165D01*
X207813492Y-55951449D01*
X207475343Y-57022253D02*
X207475343Y-57754908D01*
X207926208Y-57360401D01*
X207926208Y-57529476D01*
X207982566Y-57642192D01*
X208038924Y-57698550D01*
X208151641Y-57754908D01*
X208433431Y-57754908D01*
X208546147Y-57698550D01*
X208602505Y-57642192D01*
X208658863Y-57529476D01*
X208658863Y-57191327D01*
X208602505Y-57078611D01*
X208546147Y-57022253D01*
X207475343Y-58487563D02*
X207475343Y-58600280D01*
X207531702Y-58712996D01*
X207588060Y-58769354D01*
X207700776Y-58825712D01*
X207926208Y-58882070D01*
X208207999Y-58882070D01*
X208433431Y-58825712D01*
X208546147Y-58769354D01*
X208602505Y-58712996D01*
X208658863Y-58600280D01*
X208658863Y-58487563D01*
X208602505Y-58374847D01*
X208546147Y-58318489D01*
X208433431Y-58262131D01*
X208207999Y-58205773D01*
X207926208Y-58205773D01*
X207700776Y-58262131D01*
X207588060Y-58318489D01*
X207531702Y-58374847D01*
X207475343Y-58487563D01*
X208207999Y-59389293D02*
X208207999Y-60291022D01*
X207475343Y-60685529D02*
X207475343Y-61361826D01*
X208658863Y-61023678D02*
X207475343Y-61023678D01*
X208320715Y-61699975D02*
X208320715Y-62263556D01*
X208658863Y-61587259D02*
X207475343Y-61981765D01*
X208658863Y-62376272D01*
D15*
X216542857Y-34322380D02*
X216876190Y-33846190D01*
X217114285Y-34322380D02*
X217114285Y-33322380D01*
X216733333Y-33322380D01*
X216638095Y-33370000D01*
X216590476Y-33417619D01*
X216542857Y-33512857D01*
X216542857Y-33655714D01*
X216590476Y-33750952D01*
X216638095Y-33798571D01*
X216733333Y-33846190D01*
X217114285Y-33846190D01*
X215590476Y-34322380D02*
X216161904Y-34322380D01*
X215876190Y-34322380D02*
X215876190Y-33322380D01*
X215971428Y-33465238D01*
X216066666Y-33560476D01*
X216161904Y-33608095D01*
X214971428Y-33322380D02*
X214876190Y-33322380D01*
X214780952Y-33370000D01*
X214733333Y-33417619D01*
X214685714Y-33512857D01*
X214638095Y-33703333D01*
X214638095Y-33941428D01*
X214685714Y-34131904D01*
X214733333Y-34227142D01*
X214780952Y-34274761D01*
X214876190Y-34322380D01*
X214971428Y-34322380D01*
X215066666Y-34274761D01*
X215114285Y-34227142D01*
X215161904Y-34131904D01*
X215209523Y-33941428D01*
X215209523Y-33703333D01*
X215161904Y-33512857D01*
X215114285Y-33417619D01*
X215066666Y-33370000D01*
X214971428Y-33322380D01*
M02*
